<svg xmlns="http://www.w3.org/2000/svg" width="1200" height="1600"><rect width="1200" height="1600" fill="#f8fafc"/><rect width="1200" height="170" fill="#1d4ed8"/><text x="65" y="72" font-family="Arial" font-size="48" font-weight="900" fill="#fff">Network Hardware Inventory</text><text x="65" y="120" font-family="Arial" font-size="24" font-weight="600" fill="#fff">Record what each device is and why the design needs it.</text><rect x="65" y="230" width="1070" height="238" rx="22" fill="#fff" stroke="#cbd5e1" stroke-width="3"/><text x="95" y="274" font-family="Arial" font-size="28" font-weight="800" fill="#1d4ed8">Device / model / quantity</text><line x1="95" y1="308" x2="1105" y2="308" stroke="#cbd5e1" stroke-width="2"/><line x1="95" y1="350" x2="1105" y2="350" stroke="#cbd5e1" stroke-width="2"/><line x1="95" y1="392" x2="1105" y2="392" stroke="#cbd5e1" stroke-width="2"/><line x1="95" y1="434" x2="1105" y2="434" stroke="#cbd5e1" stroke-width="2"/><rect x="65" y="490" width="1070" height="196" rx="22" fill="#fff" stroke="#cbd5e1" stroke-width="3"/><text x="95" y="534" font-family="Arial" font-size="28" font-weight="800" fill="#1d4ed8">What job does it perform?</text><line x1="95" y1="568" x2="1105" y2="568" stroke="#cbd5e1" stroke-width="2"/><line x1="95" y1="610" x2="1105" y2="610" stroke="#cbd5e1" stroke-width="2"/><line x1="95" y1="652" x2="1105" y2="652" stroke="#cbd5e1" stroke-width="2"/><rect x="65" y="708" width="1070" height="196" rx="22" fill="#fff" stroke="#cbd5e1" stroke-width="3"/><text x="95" y="752" font-family="Arial" font-size="28" font-weight="800" fill="#1d4ed8">Ports / speed / PoE / special features</text><line x1="95" y1="786" x2="1105" y2="786" stroke="#cbd5e1" stroke-width="2"/><line x1="95" y1="828" x2="1105" y2="828" stroke="#cbd5e1" stroke-width="2"/><line x1="95" y1="870" x2="1105" y2="870" stroke="#cbd5e1" stroke-width="2"/><rect x="65" y="926" width="1070" height="196" rx="22" fill="#fff" stroke="#cbd5e1" stroke-width="3"/><text x="95" y="970" font-family="Arial" font-size="28" font-weight="800" fill="#1d4ed8">Why did we choose it?</text><line x1="95" y1="1004" x2="1105" y2="1004" stroke="#cbd5e1" stroke-width="2"/><line x1="95" y1="1046" x2="1105" y2="1046" stroke="#cbd5e1" stroke-width="2"/><line x1="95" y1="1088" x2="1105" y2="1088" stroke="#cbd5e1" stroke-width="2"/><text x="65" y="1550" font-family="Arial" font-size="21" font-weight="700" fill="#64748b">V79 Junior Networking Academy • Plan • Test • Document</text></svg>