<svg xmlns="http://www.w3.org/2000/svg" width="1200" height="1600"><rect width="1200" height="1600" fill="#f8fafc"/><rect width="1200" height="170" fill="#c2410c"/><text x="65" y="72" font-family="Arial" font-size="48" font-weight="900" fill="#fff">Network Troubleshooting Report</text><text x="65" y="120" font-family="Arial" font-size="24" font-weight="600" fill="#fff">Evidence first. Change one thing at a time.</text><rect x="65" y="230" width="1070" height="196" rx="22" fill="#fff" stroke="#cbd5e1" stroke-width="3"/><text x="95" y="274" font-family="Arial" font-size="28" font-weight="800" fill="#c2410c">Problem statement / who is affected?</text><line x1="95" y1="308" x2="1105" y2="308" stroke="#cbd5e1" stroke-width="2"/><line x1="95" y1="350" x2="1105" y2="350" stroke="#cbd5e1" stroke-width="2"/><line x1="95" y1="392" x2="1105" y2="392" stroke="#cbd5e1" stroke-width="2"/><rect x="65" y="448" width="1070" height="238" rx="22" fill="#fff" stroke="#cbd5e1" stroke-width="3"/><text x="95" y="492" font-family="Arial" font-size="28" font-weight="800" fill="#c2410c">What do we know? (facts only)</text><line x1="95" y1="526" x2="1105" y2="526" stroke="#cbd5e1" stroke-width="2"/><line x1="95" y1="568" x2="1105" y2="568" stroke="#cbd5e1" stroke-width="2"/><line x1="95" y1="610" x2="1105" y2="610" stroke="#cbd5e1" stroke-width="2"/><line x1="95" y1="652" x2="1105" y2="652" stroke="#cbd5e1" stroke-width="2"/><rect x="65" y="708" width="1070" height="280" rx="22" fill="#fff" stroke="#cbd5e1" stroke-width="3"/><text x="95" y="752" font-family="Arial" font-size="28" font-weight="800" fill="#c2410c">Tests performed / results</text><line x1="95" y1="786" x2="1105" y2="786" stroke="#cbd5e1" stroke-width="2"/><line x1="95" y1="828" x2="1105" y2="828" stroke="#cbd5e1" stroke-width="2"/><line x1="95" y1="870" x2="1105" y2="870" stroke="#cbd5e1" stroke-width="2"/><line x1="95" y1="912" x2="1105" y2="912" stroke="#cbd5e1" stroke-width="2"/><line x1="95" y1="954" x2="1105" y2="954" stroke="#cbd5e1" stroke-width="2"/><rect x="65" y="1010" width="1070" height="238" rx="22" fill="#fff" stroke="#cbd5e1" stroke-width="3"/><text x="95" y="1054" font-family="Arial" font-size="28" font-weight="800" fill="#c2410c">Root cause / fix / verification</text><line x1="95" y1="1088" x2="1105" y2="1088" stroke="#cbd5e1" stroke-width="2"/><line x1="95" y1="1130" x2="1105" y2="1130" stroke="#cbd5e1" stroke-width="2"/><line x1="95" y1="1172" x2="1105" y2="1172" stroke="#cbd5e1" stroke-width="2"/><line x1="95" y1="1214" x2="1105" y2="1214" stroke="#cbd5e1" stroke-width="2"/><rect x="65" y="1270" width="1070" height="196" rx="22" fill="#fff" stroke="#cbd5e1" stroke-width="3"/><text x="95" y="1314" font-family="Arial" font-size="28" font-weight="800" fill="#c2410c">What should prevent this next time?</text><line x1="95" y1="1348" x2="1105" y2="1348" stroke="#cbd5e1" stroke-width="2"/><line x1="95" y1="1390" x2="1105" y2="1390" stroke="#cbd5e1" stroke-width="2"/><line x1="95" y1="1432" x2="1105" y2="1432" stroke="#cbd5e1" stroke-width="2"/><text x="65" y="1550" font-family="Arial" font-size="21" font-weight="700" fill="#64748b">V79 Junior Networking Academy • Plan • Test • Document</text></svg>