<svg xmlns="http://www.w3.org/2000/svg" width="1200" height="630"><rect width="1200" height="630" fill="#f8fafc"/><text x="65" y="85" font-family="Arial" font-size="44" font-weight="900" fill="#312e81">Racks, Power &amp; UPS</text><text x="65" y="132" font-family="Arial" font-size="24" font-weight="600" fill="#475569">Organize • Power • Protect</text><rect x="65" y="255" width="175" height="120" rx="22" fill="#fff" stroke="#7c3aed" stroke-width="4"/><foreignObject x="77" y="285" width="151" height="70"><div xmlns="http://www.w3.org/1999/xhtml" style="font-family:Arial;text-align:center;color:#0f172a;font-size:22px;font-weight:800;line-height:1.1">Patch Panel</div></foreignObject><path d="M243 315 H280" stroke="#312e81" stroke-width="7"/><path d="M278 303 l18 12 -18 12" fill="#312e81"/><rect x="285" y="255" width="175" height="120" rx="22" fill="#fff" stroke="#7c3aed" stroke-width="4"/><foreignObject x="297" y="285" width="151" height="70"><div xmlns="http://www.w3.org/1999/xhtml" style="font-family:Arial;text-align:center;color:#0f172a;font-size:22px;font-weight:800;line-height:1.1">Cable Manager</div></foreignObject><path d="M463 315 H500" stroke="#312e81" stroke-width="7"/><path d="M498 303 l18 12 -18 12" fill="#312e81"/><rect x="505" y="255" width="175" height="120" rx="22" fill="#fff" stroke="#7c3aed" stroke-width="4"/><foreignObject x="517" y="285" width="151" height="70"><div xmlns="http://www.w3.org/1999/xhtml" style="font-family:Arial;text-align:center;color:#0f172a;font-size:22px;font-weight:800;line-height:1.1">Switch</div></foreignObject><path d="M683 315 H720" stroke="#312e81" stroke-width="7"/><path d="M718 303 l18 12 -18 12" fill="#312e81"/><rect x="725" y="255" width="175" height="120" rx="22" fill="#fff" stroke="#7c3aed" stroke-width="4"/><foreignObject x="737" y="285" width="151" height="70"><div xmlns="http://www.w3.org/1999/xhtml" style="font-family:Arial;text-align:center;color:#0f172a;font-size:22px;font-weight:800;line-height:1.1">Firewall / Router</div></foreignObject><path d="M903 315 H940" stroke="#312e81" stroke-width="7"/><path d="M938 303 l18 12 -18 12" fill="#312e81"/><rect x="945" y="255" width="175" height="120" rx="22" fill="#fff" stroke="#7c3aed" stroke-width="4"/><foreignObject x="957" y="285" width="151" height="70"><div xmlns="http://www.w3.org/1999/xhtml" style="font-family:Arial;text-align:center;color:#0f172a;font-size:22px;font-weight:800;line-height:1.1">UPS + PDU</div></foreignObject><text x="65" y="550" font-family="Arial" font-size="22" font-weight="700" fill="#64748b">Follow the path. Ask what each component does and what could fail here.</text></svg>