<svg xmlns="http://www.w3.org/2000/svg" width="1200" height="630"><rect width="1200" height="630" fill="#f8fafc"/><text x="55" y="82" font-family="Arial" font-size="43" font-weight="900" fill="#134e4a">DHCP, DNS, ARP &amp; ICMP</text><text x="55" y="130" font-family="Arial" font-size="24" font-weight="600" fill="#475569">The background services that make networks work</text><rect x="55" y="245" width="180" height="125" rx="22" fill="#fff" stroke="#14b8a6" stroke-width="4"/><foreignObject x="67" y="279" width="156" height="70"><div xmlns="http://www.w3.org/1999/xhtml" style="font-family:Arial;text-align:center;color:#0f172a;font-size:21px;font-weight:800;line-height:1.1">Client boots</div></foreignObject><path d="M237 307 H273" stroke="#134e4a" stroke-width="7"/><path d="M271 295 l18 12 -18 12" fill="#134e4a"/><rect x="280" y="245" width="180" height="125" rx="22" fill="#fff" stroke="#14b8a6" stroke-width="4"/><foreignObject x="292" y="279" width="156" height="70"><div xmlns="http://www.w3.org/1999/xhtml" style="font-family:Arial;text-align:center;color:#0f172a;font-size:21px;font-weight:800;line-height:1.1">DHCP</div></foreignObject><path d="M462 307 H498" stroke="#134e4a" stroke-width="7"/><path d="M496 295 l18 12 -18 12" fill="#134e4a"/><rect x="505" y="245" width="180" height="125" rx="22" fill="#fff" stroke="#14b8a6" stroke-width="4"/><foreignObject x="517" y="279" width="156" height="70"><div xmlns="http://www.w3.org/1999/xhtml" style="font-family:Arial;text-align:center;color:#0f172a;font-size:21px;font-weight:800;line-height:1.1">ARP Gateway</div></foreignObject><path d="M687 307 H723" stroke="#134e4a" stroke-width="7"/><path d="M721 295 l18 12 -18 12" fill="#134e4a"/><rect x="730" y="245" width="180" height="125" rx="22" fill="#fff" stroke="#14b8a6" stroke-width="4"/><foreignObject x="742" y="279" width="156" height="70"><div xmlns="http://www.w3.org/1999/xhtml" style="font-family:Arial;text-align:center;color:#0f172a;font-size:21px;font-weight:800;line-height:1.1">DNS Query</div></foreignObject><path d="M912 307 H948" stroke="#134e4a" stroke-width="7"/><path d="M946 295 l18 12 -18 12" fill="#134e4a"/><rect x="955" y="245" width="180" height="125" rx="22" fill="#fff" stroke="#14b8a6" stroke-width="4"/><foreignObject x="967" y="279" width="156" height="70"><div xmlns="http://www.w3.org/1999/xhtml" style="font-family:Arial;text-align:center;color:#0f172a;font-size:21px;font-weight:800;line-height:1.1">Ping / App</div></foreignObject><text x="55" y="545" font-family="Arial" font-size="22" font-weight="700" fill="#64748b">Use the diagram to explain what information changes at each step.</text></svg>